<mxfile host="app.diagrams.net" modified="2020-12-27T00:10:55.440Z" agent="5.0 (Macintosh; Intel Mac OS X 10_14_6) AppleWebKit/537.36 (KHTML, like Gecko) Chrome/87.0.4280.88 Safari/537.36 Edg/87.0.664.66" etag="caCYCsjdxgAzQTmvYhDT" version="13.10.9" type="github">
  <diagram id="MGtYckDk1e_mz4lWe_g5" name="Page-1">
    <mxGraphModel dx="1020" dy="703" grid="1" gridSize="10" guides="1" tooltips="1" connect="1" arrows="1" fold="1" page="1" pageScale="1" pageWidth="850" pageHeight="600" math="0" shadow="0">
      <root>
        <mxCell id="0" />
        <mxCell id="1" parent="0" />
        <mxCell id="2JHQKx7xsulP505j_aK_-2" value="" style="rounded=1;whiteSpace=wrap;html=1;" vertex="1" parent="1">
          <mxGeometry x="230" y="280" width="30" height="110" as="geometry" />
        </mxCell>
        <mxCell id="2JHQKx7xsulP505j_aK_-19" value="0" style="rounded=0;whiteSpace=wrap;html=1;" vertex="1" parent="1">
          <mxGeometry x="270" y="280" width="40" height="20" as="geometry" />
        </mxCell>
        <mxCell id="2JHQKx7xsulP505j_aK_-20" value="0" style="rounded=0;whiteSpace=wrap;html=1;" vertex="1" parent="1">
          <mxGeometry x="270" y="310" width="30" height="20" as="geometry" />
        </mxCell>
        <mxCell id="2JHQKx7xsulP505j_aK_-21" value="0" style="rounded=0;whiteSpace=wrap;html=1;" vertex="1" parent="1">
          <mxGeometry x="270" y="340" width="40" height="20" as="geometry" />
        </mxCell>
        <mxCell id="2JHQKx7xsulP505j_aK_-22" value="0" style="rounded=0;whiteSpace=wrap;html=1;" vertex="1" parent="1">
          <mxGeometry x="270" y="370" width="20" height="20" as="geometry" />
        </mxCell>
        <mxCell id="2JHQKx7xsulP505j_aK_-23" value="1" style="rounded=0;whiteSpace=wrap;html=1;" vertex="1" parent="1">
          <mxGeometry x="310" y="280" width="40" height="20" as="geometry" />
        </mxCell>
        <mxCell id="2JHQKx7xsulP505j_aK_-24" value="2" style="rounded=0;whiteSpace=wrap;html=1;" vertex="1" parent="1">
          <mxGeometry x="350" y="280" width="40" height="20" as="geometry" />
        </mxCell>
        <mxCell id="2JHQKx7xsulP505j_aK_-25" value="3" style="rounded=0;whiteSpace=wrap;html=1;" vertex="1" parent="1">
          <mxGeometry x="390" y="280" width="40" height="20" as="geometry" />
        </mxCell>
        <mxCell id="2JHQKx7xsulP505j_aK_-26" value="6" style="rounded=0;whiteSpace=wrap;html=1;" vertex="1" parent="1">
          <mxGeometry x="510" y="280" width="40" height="20" as="geometry" />
        </mxCell>
        <mxCell id="2JHQKx7xsulP505j_aK_-27" value="4" style="rounded=0;whiteSpace=wrap;html=1;" vertex="1" parent="1">
          <mxGeometry x="430" y="280" width="40" height="20" as="geometry" />
        </mxCell>
        <mxCell id="2JHQKx7xsulP505j_aK_-28" value="5" style="rounded=0;whiteSpace=wrap;html=1;" vertex="1" parent="1">
          <mxGeometry x="470" y="280" width="40" height="20" as="geometry" />
        </mxCell>
        <mxCell id="2JHQKx7xsulP505j_aK_-29" value="1" style="rounded=0;whiteSpace=wrap;html=1;" vertex="1" parent="1">
          <mxGeometry x="300" y="310" width="30" height="20" as="geometry" />
        </mxCell>
        <mxCell id="2JHQKx7xsulP505j_aK_-30" value="2" style="rounded=0;whiteSpace=wrap;html=1;" vertex="1" parent="1">
          <mxGeometry x="330" y="310" width="30" height="20" as="geometry" />
        </mxCell>
        <mxCell id="2JHQKx7xsulP505j_aK_-31" value="3" style="rounded=0;whiteSpace=wrap;html=1;" vertex="1" parent="1">
          <mxGeometry x="360" y="310" width="30" height="20" as="geometry" />
        </mxCell>
        <mxCell id="2JHQKx7xsulP505j_aK_-32" value="4" style="rounded=0;whiteSpace=wrap;html=1;" vertex="1" parent="1">
          <mxGeometry x="390" y="310" width="30" height="20" as="geometry" />
        </mxCell>
        <mxCell id="2JHQKx7xsulP505j_aK_-33" value="5" style="rounded=0;whiteSpace=wrap;html=1;" vertex="1" parent="1">
          <mxGeometry x="420" y="310" width="30" height="20" as="geometry" />
        </mxCell>
        <mxCell id="2JHQKx7xsulP505j_aK_-34" value="6" style="rounded=0;whiteSpace=wrap;html=1;" vertex="1" parent="1">
          <mxGeometry x="450" y="310" width="30" height="20" as="geometry" />
        </mxCell>
        <mxCell id="2JHQKx7xsulP505j_aK_-35" value="1" style="rounded=0;whiteSpace=wrap;html=1;" vertex="1" parent="1">
          <mxGeometry x="310" y="340" width="40" height="20" as="geometry" />
        </mxCell>
        <mxCell id="2JHQKx7xsulP505j_aK_-36" value="2" style="rounded=0;whiteSpace=wrap;html=1;" vertex="1" parent="1">
          <mxGeometry x="350" y="340" width="40" height="20" as="geometry" />
        </mxCell>
        <mxCell id="2JHQKx7xsulP505j_aK_-37" value="3" style="rounded=0;whiteSpace=wrap;html=1;" vertex="1" parent="1">
          <mxGeometry x="390" y="340" width="40" height="20" as="geometry" />
        </mxCell>
        <mxCell id="2JHQKx7xsulP505j_aK_-38" value="4" style="rounded=0;whiteSpace=wrap;html=1;" vertex="1" parent="1">
          <mxGeometry x="430" y="340" width="40" height="20" as="geometry" />
        </mxCell>
        <mxCell id="2JHQKx7xsulP505j_aK_-39" value="5" style="rounded=0;whiteSpace=wrap;html=1;" vertex="1" parent="1">
          <mxGeometry x="470" y="340" width="40" height="20" as="geometry" />
        </mxCell>
        <mxCell id="2JHQKx7xsulP505j_aK_-40" value="6" style="rounded=0;whiteSpace=wrap;html=1;" vertex="1" parent="1">
          <mxGeometry x="510" y="340" width="40" height="20" as="geometry" />
        </mxCell>
        <mxCell id="2JHQKx7xsulP505j_aK_-41" value="1" style="rounded=0;whiteSpace=wrap;html=1;" vertex="1" parent="1">
          <mxGeometry x="290" y="370" width="20" height="20" as="geometry" />
        </mxCell>
        <mxCell id="2JHQKx7xsulP505j_aK_-42" value="2" style="rounded=0;whiteSpace=wrap;html=1;" vertex="1" parent="1">
          <mxGeometry x="310" y="370" width="20" height="20" as="geometry" />
        </mxCell>
        <mxCell id="2JHQKx7xsulP505j_aK_-43" value="3" style="rounded=0;whiteSpace=wrap;html=1;" vertex="1" parent="1">
          <mxGeometry x="330" y="370" width="20" height="20" as="geometry" />
        </mxCell>
        <mxCell id="2JHQKx7xsulP505j_aK_-44" value="4" style="rounded=0;whiteSpace=wrap;html=1;" vertex="1" parent="1">
          <mxGeometry x="350" y="370" width="20" height="20" as="geometry" />
        </mxCell>
        <mxCell id="2JHQKx7xsulP505j_aK_-45" value="5" style="rounded=0;whiteSpace=wrap;html=1;" vertex="1" parent="1">
          <mxGeometry x="370" y="370" width="20" height="20" as="geometry" />
        </mxCell>
        <mxCell id="2JHQKx7xsulP505j_aK_-46" value="6" style="rounded=0;whiteSpace=wrap;html=1;" vertex="1" parent="1">
          <mxGeometry x="390" y="370" width="20" height="20" as="geometry" />
        </mxCell>
      </root>
    </mxGraphModel>
  </diagram>
</mxfile>
